<svg width="304" height="269" viewBox="0 0 304 269" fill="none" xmlns="http://www.w3.org/2000/svg">
<g clip-path="url(#clip0_54_325)">
<path fill-rule="evenodd" clip-rule="evenodd" d="M220.086 22.6918C232.852 39.7578 234.111 67.4226 248.315 88.6203C262.699 109.818 290.029 124.728 299.379 144.848C308.729 164.968 299.919 190.657 285.894 212.034C271.69 233.591 252.091 250.837 229.975 260.358C207.859 269.699 183.046 271.316 164.347 260.537C145.827 249.938 133.421 226.944 112.024 217.064C90.4478 207.184 60.061 210.417 37.9452 199.639C15.6495 188.86 1.62488 164.249 0.186455 138.561C-1.43178 113.052 9.53623 86.4646 26.9772 67.4226C44.4181 48.3806 68.3319 36.7039 91.167 25.3865C114.182 14.069 136.118 3.11091 159.492 0.955215C182.687 -1.20048 207.32 5.62589 220.086 22.6918Z" fill="#0077B5"/>
<path d="M136.14 240.478C147.786 157.652 200.395 120.937 293.965 130.334" stroke="white" stroke-width="0.646667"/>
<path d="M39.4533 202.26C107.235 104.64 175.566 63.9916 244.447 80.3139" stroke="white" stroke-width="0.646667"/>
</g>
<defs>
<clipPath id="clip0_54_325">
<rect width="303.287" height="267.72" fill="white" transform="translate(0.00665283 0.5)"/>
</clipPath>
</defs>
</svg>
