<svg width="57" height="57" viewBox="0 0 57 57" fill="none" xmlns="http://www.w3.org/2000/svg">
<path opacity="0.2" d="M28.1899 55.555C43.1017 55.555 55.1899 43.4667 55.1899 28.555C55.1899 13.6433 43.1017 1.55499 28.1899 1.55499C13.2782 1.55499 1.18994 13.6433 1.18994 28.555C1.18994 43.4667 13.2782 55.555 28.1899 55.555Z" fill="#0061FE"/>
<path d="M55.1899 30.805C54.0452 44.665 42.3453 55.555 28.1899 55.555C21.0291 55.555 14.1616 52.7104 9.09809 47.6468C4.03454 42.5834 1.18994 35.7158 1.18994 28.555C1.18994 14.3996 12.0799 2.69972 25.9399 1.55499" stroke="#0061FE" stroke-width="2.25" stroke-linecap="round" stroke-linejoin="round"/>
<path d="M28.1899 12.805V28.555H43.9399" stroke="#0061FE" stroke-width="2.25" stroke-linecap="round" stroke-linejoin="round"/>
<path d="M37.1899 4.55499C37.8112 4.55499 38.3149 4.05129 38.3149 3.42999C38.3149 2.80869 37.8112 2.30499 37.1899 2.30499C36.5686 2.30499 36.0649 2.80869 36.0649 3.42999C36.0649 4.05129 36.5686 4.55499 37.1899 4.55499Z" fill="#0061FE"/>
<path d="M47.3149 11.305C47.9362 11.305 48.4399 10.8013 48.4399 10.18C48.4399 9.55869 47.9362 9.05499 47.3149 9.05499C46.6936 9.05499 46.1899 9.55869 46.1899 10.18C46.1899 10.8013 46.6936 11.305 47.3149 11.305Z" fill="#0061FE"/>
<path d="M54.0649 21.43C54.6862 21.43 55.1899 20.9263 55.1899 20.305C55.1899 19.6837 54.6862 19.18 54.0649 19.18C53.4436 19.18 52.9399 19.6837 52.9399 20.305C52.9399 20.9263 53.4436 21.43 54.0649 21.43Z" fill="#0061FE"/>
</svg>
