<svg width="57" height="57" viewBox="0 0 57 57" fill="none" xmlns="http://www.w3.org/2000/svg">
<path opacity="0.2" d="M28.1899 55.555C43.1017 55.555 55.1899 43.4667 55.1899 28.555C55.1899 13.6433 43.1017 1.55499 28.1899 1.55499C13.2782 1.55499 1.18994 13.6433 1.18994 28.555C1.18994 43.4667 13.2782 55.555 28.1899 55.555Z" fill="#0061FE"/>
<path d="M28.1899 12.805V17.305" stroke="#0061FE" stroke-width="2.25" stroke-linecap="round" stroke-linejoin="round"/>
<path d="M28.1899 39.805V44.305" stroke="#0061FE" stroke-width="2.25" stroke-linecap="round" stroke-linejoin="round"/>
<path d="M28.1899 55.555C43.1017 55.555 55.1899 43.4667 55.1899 28.555C55.1899 13.6433 43.1017 1.55499 28.1899 1.55499C13.2782 1.55499 1.18994 13.6433 1.18994 28.555C1.18994 43.4667 13.2782 55.555 28.1899 55.555Z" stroke="#0061FE" stroke-width="2.25" stroke-linecap="round" stroke-linejoin="round"/>
<path d="M21.4399 39.805H31.5649C33.0568 39.805 34.4875 39.2123 35.5424 38.1575C36.5973 37.1026 37.1899 35.6718 37.1899 34.18C37.1899 32.6882 36.5973 31.2574 35.5424 30.2025C34.4875 29.1476 33.0568 28.555 31.5649 28.555H24.8149C23.3231 28.555 21.8923 27.9623 20.8375 26.9075C19.7826 25.8526 19.1899 24.4218 19.1899 22.93C19.1899 21.4382 19.7826 20.0074 20.8375 18.9525C21.8923 17.8976 23.3231 17.305 24.8149 17.305H34.9399" stroke="#0061FE" stroke-width="2.25" stroke-linecap="round" stroke-linejoin="round"/>
</svg>
