<svg width="97" height="79" viewBox="0 0 97 79" fill="none" xmlns="http://www.w3.org/2000/svg">
<g clip-path="url(#clip0_2_116)">
<path d="M73.0113 20.553C72.2879 18.16 68.8804 17.3879 62.8893 18.2498C57.4458 19.0307 50.5317 21.0972 43.4187 24.0641C36.3056 27.0311 29.8366 30.5541 25.1932 33.9776C20.0823 37.7518 17.8575 40.8729 18.5837 43.2634C19.0519 44.8123 20.6417 45.6788 23.3353 45.867C24.9669 45.952 26.6046 45.8764 28.2303 45.6413L28.246 45.665L28.2855 45.6309C28.4254 45.6123 28.5624 45.5991 28.7051 45.575C34.1488 44.7913 41.0629 42.7248 48.1636 39.757C55.2643 36.7892 61.748 33.2701 66.3915 29.8466C71.5129 26.0618 73.7373 22.9463 73.0113 20.553ZM47.6206 37.8961C41.9656 40.2523 36.4449 42.0301 31.7332 43.0324C36.0845 40.0371 41.8454 36.9815 48.1758 34.3431C53.2815 32.2096 58.5195 30.5419 63.8401 29.3559C59.459 32.3179 53.7854 35.3286 47.6206 37.8961ZM67.3526 26.7137C61.6534 27.542 54.2781 29.6956 47.6031 32.483C39.5114 35.8586 32.2914 39.9311 27.6772 43.7144C24.7938 44.0467 20.6876 44.1004 20.2269 42.586C19.7183 40.9065 23.6898 37.4332 26.1187 35.6381C30.6529 32.2921 37.0029 28.8431 43.9938 25.9244C50.9847 23.0058 57.7647 20.9809 63.0836 20.214C64.8065 19.9561 66.5427 19.8685 68.2731 19.9521C69.8563 20.0628 71.1415 20.4365 71.3999 21.2354C71.7675 22.5246 69.5097 24.8797 67.3428 26.713L67.3526 26.7137Z" fill="url(#paint0_linear_2_116)"/>
<path d="M93.6942 27.8701L89.416 13.7488C87.8337 8.52723 81.7328 5.65042 72.2281 5.62783C63.0178 5.60878 51.5954 8.24613 40.0682 13.054C28.541 17.8618 18.252 24.2839 11.128 31.1258C3.77141 38.1787 0.589847 44.9356 2.17254 50.1515L6.45064 64.2756C7.85626 68.9452 12.9082 71.7488 20.7701 72.2983C21.6894 72.3625 22.6454 72.3953 23.6384 72.3965C32.8487 72.4156 44.2712 69.7783 55.7986 64.9676C67.3258 60.1569 77.6145 53.7405 84.7384 46.9014C92.0951 39.8457 95.2745 33.0857 93.6942 27.8701ZM3.80611 49.4707C2.49706 45.1541 5.56605 39.0168 12.2228 32.6306C19.2027 25.9404 29.292 19.6492 40.6306 14.9191C51.9693 10.1889 63.1787 7.59057 72.1933 7.61299C73.1412 7.61109 74.0516 7.64633 74.9258 7.70743C81.99 8.20115 86.6158 10.5887 87.7821 14.4324C89.0887 18.7489 86.0223 24.8863 79.363 31.2723C72.3854 37.9655 62.2959 44.2595 50.9572 48.9897C39.6186 53.7199 28.4096 56.3125 19.3945 56.2957C10.7953 56.2768 5.11497 53.79 3.80611 49.4707ZM83.6436 45.3966C76.6637 52.0868 66.5743 58.378 55.2358 63.1081C43.8971 67.8383 32.6875 70.4395 23.6729 70.417C15.0745 70.3839 9.39326 67.9113 8.08687 63.5921L5.39463 54.7097C7.90866 56.6543 11.6683 57.8399 16.4919 58.177C17.4103 58.2412 18.3654 58.2767 19.3574 58.2779C28.5701 58.2999 39.9928 55.6598 51.5199 50.8519C63.047 46.044 73.3357 39.6277 80.4573 32.7855C85.2682 28.1699 88.2939 23.6792 89.3678 19.677L92.0678 28.5542C93.3695 32.8703 90.2999 39.016 83.6438 45.3938L83.6436 45.3966Z" fill="url(#paint1_linear_2_116)"/>
<path d="M87.7832 14.4209C86.6167 10.5771 81.9909 8.18958 74.9268 7.69585C74.0527 7.63476 73.1421 7.59952 72.1944 7.60142C63.1797 7.57901 51.9738 10.1634 40.6317 14.9075C29.2896 19.6516 19.2037 25.9288 12.2239 32.619C5.5671 39.0053 2.49811 45.1425 3.80717 49.4591C5.11623 53.7756 10.7963 56.2653 19.3956 56.2842C28.4106 56.3009 39.6162 53.7222 50.9583 48.9781C62.3003 44.234 72.3864 37.954 79.3641 31.2608C86.0225 24.886 89.089 18.7486 87.7832 14.4209ZM66.4024 29.8296C61.7589 33.2531 55.2778 36.7724 48.1746 39.74C41.0714 42.7077 34.15 44.7738 28.7161 45.5581C28.5734 45.5822 28.4364 45.5953 28.2966 45.614L28.2571 45.6481L28.2414 45.6243C26.6157 45.8595 24.978 45.935 23.3464 45.85C20.6551 45.6619 19.0631 44.7925 18.5946 43.2464C17.8684 40.8559 20.0933 37.7348 25.2041 33.9606C29.8476 30.5371 36.3288 27.0178 43.4297 24.0472C50.5306 21.0766 57.4568 19.0137 62.9002 18.2328C68.8987 17.3715 72.3088 18.1436 73.0224 20.536C73.736 22.9284 71.5129 26.0611 66.4016 29.8409L66.4024 29.8296Z" fill="#F2CFFF"/>
<path d="M67.3421 26.7127C61.6429 27.541 54.2675 29.6946 47.5926 32.482C39.5008 35.8575 32.2808 39.9301 27.6666 43.7134C24.7831 44.0457 20.677 44.0995 20.2162 42.5851C19.7077 40.9055 23.6791 37.4322 26.1082 35.637C30.6423 32.2911 36.9924 28.8421 43.9833 25.9234C50.9742 23.0047 57.7541 20.9799 63.073 20.2131C64.7958 19.9552 66.5322 19.8675 68.2624 19.9511C69.8457 20.0618 71.131 20.4355 71.3894 21.2345C71.7669 22.5243 69.509 24.8794 67.3421 26.7127Z" fill="url(#paint2_linear_2_116)"/>
<path d="M83.6439 45.394C76.6638 52.0871 66.5745 58.3782 55.2358 63.1084C43.8972 67.8386 32.6878 70.4368 23.6729 70.4173C15.0747 70.3842 9.39338 67.9116 8.08698 63.5924L5.39475 54.7099C7.90877 56.6546 11.6685 57.8402 16.492 58.1773C17.4104 58.2415 18.3654 58.277 19.3576 58.2781C28.5704 58.2974 39.9929 55.66 51.5202 50.8493C63.0475 46.0386 73.3359 39.6251 80.4576 32.783C85.2683 28.1701 88.2942 23.6767 89.3681 19.6744L92.068 28.5545C93.3696 32.8706 90.3 39.0163 83.6439 45.394Z" fill="url(#paint3_linear_2_116)"/>
</g>
<defs>
<linearGradient id="paint0_linear_2_116" x1="46.8777" y1="16.4526" x2="44.7174" y2="47.3615" gradientUnits="userSpaceOnUse">
<stop stop-color="#7B5AFF"/>
<stop offset="1" stop-color="#2979FF"/>
</linearGradient>
<linearGradient id="paint1_linear_2_116" x1="50.3798" y1="4.00044" x2="45.4856" y2="74.0257" gradientUnits="userSpaceOnUse">
<stop stop-color="#7B5AFF"/>
<stop offset="1" stop-color="#2979FF"/>
</linearGradient>
<linearGradient id="paint2_linear_2_116" x1="46.7419" y1="18.447" x2="44.8602" y2="45.3707" gradientUnits="userSpaceOnUse">
<stop stop-color="#7B5AFF"/>
<stop offset="1" stop-color="#2979FF"/>
</linearGradient>
<linearGradient id="paint3_linear_2_116" x1="50.6845" y1="16.9707" x2="46.8295" y2="72.1278" gradientUnits="userSpaceOnUse">
<stop stop-color="#7B5AFF"/>
<stop offset="1" stop-color="#2979FF"/>
</linearGradient>
<clipPath id="clip0_2_116">
<rect width="92" height="72" fill="white" transform="translate(5.02002) rotate(3.99801)"/>
</clipPath>
</defs>
</svg>
