<svg width="73" height="73" viewBox="0 0 73 73" fill="none" xmlns="http://www.w3.org/2000/svg">
<g clip-path="url(#clip0_40_127)">
<mask id="mask0_40_127" style="mask-type:luminance" maskUnits="userSpaceOnUse" x="0" y="0" width="73" height="73">
<path d="M72.1899 0.554993H0.189941V72.555H72.1899V0.554993Z" fill="white"/>
</mask>
<g mask="url(#mask0_40_127)">
<path opacity="0.2" d="M23.8149 45.555C31.8921 45.555 38.4399 39.0072 38.4399 30.93C38.4399 22.8528 31.8921 16.305 23.8149 16.305C15.7377 16.305 9.18994 22.8528 9.18994 30.93C9.18994 39.0072 15.7377 45.555 23.8149 45.555Z" fill="#0061FE"/>
<path d="M3.06726 56.805C5.3147 53.3494 8.38961 50.5099 12.0129 48.5443C15.6361 46.5787 19.6929 45.5491 23.8151 45.5491C27.9372 45.5491 31.994 46.5787 35.6172 48.5443C39.2405 50.5099 42.3154 53.3494 44.5629 56.805" stroke="#0061FE" stroke-width="2.25" stroke-linecap="round" stroke-linejoin="round"/>
<path d="M48.5649 45.555C52.6869 45.5526 56.744 46.5805 60.3675 48.5452C63.991 50.51 67.0659 53.3493 69.3128 56.805" stroke="#0061FE" stroke-width="2.25" stroke-linecap="round" stroke-linejoin="round"/>
<path d="M23.8149 45.555C31.8921 45.555 38.4399 39.0072 38.4399 30.93C38.4399 22.8528 31.8921 16.305 23.8149 16.305C15.7377 16.305 9.18994 22.8528 9.18994 30.93C9.18994 39.0072 15.7377 45.555 23.8149 45.555Z" stroke="#0061FE" stroke-width="2.25" stroke-linecap="round" stroke-linejoin="round"/>
<path d="M43.134 17.3456C45.1346 16.5477 47.2867 16.2015 49.4366 16.3318C51.5865 16.462 53.6811 17.0656 55.5707 18.0991C57.4603 19.1328 59.0982 20.5711 60.3675 22.3111C61.6368 24.0512 62.5062 26.0501 62.9133 28.1651C63.3205 30.2801 63.2556 32.4589 62.7231 34.5459C62.1905 36.6328 61.2036 38.5765 59.8329 40.2378C58.4621 41.8991 56.7413 43.2371 54.7935 44.1563C52.8456 45.0755 50.7188 45.5531 48.5649 45.555" stroke="#0061FE" stroke-width="2.25" stroke-linecap="round" stroke-linejoin="round"/>
</g>
</g>
<defs>
<clipPath id="clip0_40_127">
<rect width="72" height="72.75" fill="white" transform="translate(0.189941 0.179993)"/>
</clipPath>
</defs>
</svg>
